<?xml version="1.0" encoding="utf-8"?>
<!-- Generator: Adobe Illustrator 24.0.3, SVG Export Plug-In . SVG Version: 6.00 Build 0)  -->
<svg version="1.1" id="Layer_30" xmlns="http://www.w3.org/2000/svg" xmlns:xlink="http://www.w3.org/1999/xlink" x="0px" y="0px"
	 viewBox="0 0 512 512" style="enable-background:new 0 0 512 512;" xml:space="preserve">
<style type="text/css">
	.st0{fill-rule:evenodd;clip-rule:evenodd;fill:#EDEDED;}
	.st1{fill-rule:evenodd;clip-rule:evenodd;fill:#CF3636;stroke:#000000;stroke-width:3;stroke-miterlimit:10;}
	.st2{fill-rule:evenodd;clip-rule:evenodd;fill:#C72A2A;}
	.st3{fill-rule:evenodd;clip-rule:evenodd;fill:#AD2323;}
	.st4{fill-rule:evenodd;clip-rule:evenodd;fill:#C7AB3B;stroke:#000000;stroke-width:3;stroke-miterlimit:10;}
	.st5{fill-rule:evenodd;clip-rule:evenodd;fill:#3BA132;stroke:#000000;stroke-width:3;stroke-miterlimit:10;}
	.st6{fill-rule:evenodd;clip-rule:evenodd;fill:#AD2323;stroke:#000000;stroke-width:3;stroke-miterlimit:10;}
	.st7{fill-rule:evenodd;clip-rule:evenodd;fill:#2E324F;stroke:#000000;stroke-width:3;stroke-miterlimit:10;}
	.st8{fill:none;stroke:#000000;stroke-width:3;stroke-miterlimit:10;}
	.st9{fill:#41B536;}
	.st10{fill:none;stroke:#E8C94F;stroke-width:3;stroke-linecap:round;stroke-linejoin:round;stroke-miterlimit:10;}
	.st11{fill:none;stroke:#CF4D52;stroke-width:3;stroke-linecap:round;stroke-linejoin:round;stroke-miterlimit:10;}
	.st12{fill-rule:evenodd;clip-rule:evenodd;fill:#BF97CC;}
</style>
<g>
	<path class="st0" d="M256.08,413.96c86.9,0,157.88-70.99,157.88-157.88c0-87.05-70.98-158.05-157.88-158.05
		c-87.05,0-158.04,71-158.04,158.05C98.04,342.98,169.03,413.96,256.08,413.96L256.08,413.96z"/>
	<rect x="312.89" y="222.56" class="st1" width="17.87" height="29.18"/>
	<path class="st2" d="M223.54,203.37h67.87c10.17,0,18.53-8.36,18.53-18.53v-24.43c0-23.77-19.51-43.12-43.28-43.12h-18.36
		c-23.77,0-43.28,19.34-43.28,43.12v24.43C205.01,195.02,213.38,203.37,223.54,203.37L223.54,203.37z"/>
	<path class="st3" d="M223.54,203.37h60.17c10.17,0,18.53-8.36,18.53-18.53v-24.43c0-23.77-19.51-43.12-43.28-43.12h-10.66
		c-23.77,0-43.28,19.34-43.28,43.12v24.43C205.01,195.02,213.38,203.37,223.54,203.37L223.54,203.37z"/>
	<rect x="181.08" y="222.23" class="st1" width="18.03" height="29.18"/>
	<path class="st4" d="M191.24,212.07h129.19c5.74,0,10.33,4.76,10.33,10.49l0,0c0,5.57-4.59,10.33-10.33,10.33H191.24
		c-5.57,0-10.33-4.75-10.33-10.33l0,0C180.91,216.82,185.67,212.07,191.24,212.07L191.24,212.07z"/>
	<path class="st4" d="M202.88,125.34L202.88,125.34c1.15,0,2.13,0.98,2.13,2.3v48.19h-2.13c-1.31,0-2.29-0.98-2.29-2.29v-45.9
		C200.59,126.32,201.57,125.34,202.88,125.34L202.88,125.34z"/>
	<path class="st4" d="M228.29,157.3h58.36c6.56,0,12.3,4.43,13.94,10.49h9.34v7.87h-9.34c-1.64,6.07-7.38,10.65-13.94,10.65h-58.36
		c-6.56,0-12.3-4.58-13.93-10.65h-9.35v-7.87h9.35C216,161.73,221.74,157.3,228.29,157.3L228.29,157.3z"/>
	<path class="st5" d="M229.44,165.34h9.99c3.45,0,6.4,2.95,6.4,6.39l0,0c0,3.61-2.95,6.39-6.4,6.39h-9.99c-3.6,0-6.4-2.78-6.4-6.39
		l0,0C223.05,168.29,225.84,165.34,229.44,165.34L229.44,165.34z"/>
	<path class="st5" d="M272.72,165.34h10c3.44,0,6.4,2.95,6.4,6.39l0,0c0,3.61-2.95,6.39-6.4,6.39h-10c-3.61,0-6.4-2.78-6.4-6.39l0,0
		C266.33,168.29,269.11,165.34,272.72,165.34L272.72,165.34z"/>
	<path class="st4" d="M245.02,191.9h24.92c1.64,0,2.95,1.31,2.95,2.95l0,0c0,1.64-1.31,2.95-2.95,2.95h-24.92
		c-1.48,0-2.79-1.31-2.79-2.95l0,0C242.23,193.21,243.54,191.9,245.02,191.9L245.02,191.9z"/>
	<path class="st4" d="M312.56,125.18L312.56,125.18c-1.15,0-2.14,0.98-2.14,2.12v48.2h2.14c1.31,0,2.29-0.98,2.29-2.13V127.3
		C314.85,126.16,313.87,125.18,312.56,125.18L312.56,125.18z"/>
	<rect x="236.33" y="203.37" class="st6" width="40.66" height="8.85"/>
	<path class="st2" d="M231.4,279.28h50.01l20.33-47.38c0-11.15-9.19-20.33-20.33-20.33H231.4c-11.15,0-20.33,9.19-20.33,20.33
		L231.4,279.28z"/>
	<path class="st4" d="M229.44,277.97h54.43c6.39,0,11.64,5.25,11.64,11.64l0,0c0,6.39-5.25,11.64-11.64,11.64h-54.43
		c-6.4,0-11.64-5.25-11.64-11.64l0,0C217.8,283.21,223.05,277.97,229.44,277.97L229.44,277.97z"/>
	<path class="st6" d="M227.63,280.1L227.63,280.1c5.41,0,9.84,4.42,9.84,9.83v24.75c0,5.41-4.43,9.84-9.84,9.84l0,0
		c-5.4,0-9.83-4.43-9.83-9.84v-24.75C217.8,284.52,222.23,280.1,227.63,280.1L227.63,280.1z"/>
	<path class="st6" d="M286.17,280.1L286.17,280.1c5.41,0,9.84,4.42,9.84,9.83v24.75c0,5.41-4.43,9.84-9.84,9.84l0,0
		c-5.41,0-9.84-4.43-9.84-9.84v-24.75C276.33,284.52,280.75,280.1,286.17,280.1L286.17,280.1z"/>
	<path class="st6" d="M227.48,312.4L227.48,312.4c8.69,0,15.9,7.21,15.9,15.9v30c0,8.86-7.22,15.91-15.9,15.91l0,0
		c-8.86,0-16.07-7.05-16.07-15.91v-30C211.4,319.61,218.62,312.4,227.48,312.4L227.48,312.4z"/>
	<path class="st6" d="M285.67,312.4L285.67,312.4c8.86,0,16.07,7.21,16.07,15.9v30c0,8.86-7.21,15.91-16.07,15.91l0,0
		c-8.69,0-15.9-7.05-15.9-15.91v-30C269.77,319.61,276.98,312.4,285.67,312.4L285.67,312.4z"/>
	<path class="st7" d="M207.14,394.7h40.66v-10.82c0-5.74-4.92-10.66-10.82-10.66H217.8c-5.9,0-10.66,4.92-10.66,10.66V394.7z"/>
	<path class="st7" d="M265.35,394.7h40.66v-10.82c0-5.74-4.76-10.66-10.66-10.66h-19.18c-5.9,0-10.82,4.92-10.82,10.66V394.7z"/>
	<path class="st6" d="M186.65,244.52h8.2c6.4,0,11.81,5.25,11.81,11.8v28.2c0,6.39-5.41,11.81-11.81,11.81h-8.2
		c-6.56,0-11.8-5.41-11.8-11.81v-28.2C174.85,249.77,180.09,244.52,186.65,244.52L186.65,244.52z"/>
	<path class="st1" d="M181.08,279.28h19.18c3.45,0,6.07,2.62,6.4,5.9c-0.33,6.07-5.58,11.14-11.81,11.14h-8.2
		c-6.39,0-11.48-5.08-11.8-11.14C175.01,281.9,177.79,279.28,181.08,279.28L181.08,279.28z"/>
	<path class="st7" d="M191.24,301.58c0.16-0.33,0.16-0.82,0.16-1.31v-2.62l3.28,1.47c2.29,1.15,5.08,0.16,6.23-1.97l0,0
		c0.99-2.29,0.16-5.08-2.13-6.23l-8.69-4.26c-0.65-0.33-1.31-0.33-1.97-0.49c-0.33,0-0.82-0.16-1.31-0.16l0,0
		c-2.46,0-4.59,2.13-4.59,4.59v9.68c0,0.66,0.17,1.15,0.5,1.8c-0.5,1.15-0.33,2.46,0.33,3.61l4.75,8.36
		c1.14,2.14,3.94,2.95,6.23,1.81l0,0c2.14-1.31,2.95-4.1,1.64-6.24L191.24,301.58z"/>
	<path class="st6" d="M325.35,244.69h-8.2c-6.55,0-11.8,5.41-11.8,11.8v28.2c0,6.56,5.25,11.8,11.8,11.8h8.2
		c6.56,0,11.8-5.24,11.8-11.8v-28.2C337.15,250.1,331.91,244.69,325.35,244.69L325.35,244.69z"/>
	<path class="st1" d="M330.76,279.45h-19.02c-3.44,0-6.23,2.62-6.39,5.9c0.33,6.23,5.57,11.14,11.8,11.14h8.2
		c6.23,0,11.48-4.91,11.8-11.14C336.99,282.07,334.2,279.45,330.76,279.45L330.76,279.45z"/>
	<path class="st7" d="M320.76,301.9c-0.16-0.49-0.16-0.98-0.16-1.47v-2.62l-3.28,1.64c-2.3,1.15-5.08,0.16-6.23-2.13l0,0
		c-1.14-2.3-0.16-4.92,2.14-6.07l8.69-4.26c0.49-0.33,1.14-0.49,1.96-0.49c0.33-0.16,0.82-0.16,1.15-0.16l0,0
		c2.62,0,4.59,1.97,4.59,4.59v9.51c0,0.65,0,1.31-0.33,1.8c0.33,1.15,0.33,2.46-0.33,3.61l-4.75,8.36c-1.15,2.3-4.09,3.12-6.23,1.81
		l0,0c-2.13-1.15-2.95-4.1-1.8-6.23L320.76,301.9z"/>
	<path class="st8" d="M223.54,203.37h67.87c10.17,0,18.53-8.36,18.53-18.53v-24.43c0-23.77-19.51-43.12-43.28-43.12h-18.36
		c-23.77,0-43.28,19.34-43.28,43.12v24.43C205.01,195.02,213.38,203.37,223.54,203.37L223.54,203.37z"/>
	<path class="st3" d="M276,279.28l19.35-45.25c0-11.14-9.18-20.16-20.33-20.16h-50c-1.15,0-2.13,0-3.28,0.16
		c-6.24,3.45-10.66,10.17-10.66,17.87l20.33,47.38H276z"/>
	<path class="st8" d="M231.4,279.28h50.01l20.33-47.38c0-11.15-9.19-20.33-20.33-20.33H231.4c-11.15,0-20.33,9.19-20.33,20.33
		L231.4,279.28z"/>
	<rect x="237.31" y="229.77" class="st5" width="38.2" height="16.4"/>
	<path class="st9" d="M356.32,190.2c-0.83,0-1.5-0.67-1.5-1.5v-18.85c0-0.83,0.67-1.5,1.5-1.5s1.5,0.67,1.5,1.5v18.85
		C357.82,189.53,357.15,190.2,356.32,190.2z"/>
	<polygon class="st10" points="153.19,165.75 156.47,175.91 167.13,175.91 158.44,182.3 161.72,192.31 153.19,186.07 144.51,192.31 
		147.78,182.3 139.26,175.91 149.92,175.91 	"/>
	<polygon class="st11" points="347.31,319.69 350.59,329.85 361.24,329.85 352.55,336.08 355.83,346.25 347.31,339.86 
		338.62,346.25 341.9,336.08 333.2,329.85 344.03,329.85 	"/>
	<path class="st12" d="M152.05,319.53c4.92,0,9.01-4.1,9.01-9.02c0-5.08-4.09-9.01-9.01-9.01s-9.02,3.93-9.02,9.01
		C143.03,315.43,147.13,319.53,152.05,319.53L152.05,319.53z"/>
	<path class="st9" d="M365.67,180.69h-18.69c-0.83,0-1.5-0.67-1.5-1.5s0.67-1.5,1.5-1.5h18.69c0.83,0,1.5,0.67,1.5,1.5
		S366.5,180.69,365.67,180.69z"/>
</g>
</svg>
